<svg width="128" height="105" viewBox="0 0 128 105" fill="none" xmlns="http://www.w3.org/2000/svg">
<path d="M118 0L128 0L128 60H118L118 0Z" fill="white" fill-opacity="0.8"/>
<rect x="73" y="8.69568" width="8.69565" height="45" transform="rotate(-90 73 8.69568)" fill="white" fill-opacity="0.8"/>
<path d="M10 105H0L0 45H10L10 105Z" fill="white" fill-opacity="0.8"/>
<rect x="55" y="96.3043" width="8.69565" height="45" transform="rotate(90 55 96.3043)" fill="white" fill-opacity="0.8"/>
<path d="M41.15 33.63C40.03 33.63 39.1433 33.315 38.49 32.685C37.8367 32.0317 37.51 31.18 37.51 30.13C37.51 29.1033 37.8367 28.2867 38.49 27.68C39.1433 27.0733 40.03 26.77 41.15 26.77C42.27 26.77 43.1567 27.0733 43.81 27.68C44.4633 28.2867 44.79 29.1033 44.79 30.13C44.79 31.18 44.4633 32.0317 43.81 32.685C43.1567 33.315 42.27 33.63 41.15 33.63ZM38.42 75V41.47H43.88V75H38.42ZM64.3096 75.84C62.4896 75.84 60.8563 75.49 59.4096 74.79C57.9629 74.09 56.8196 73.04 55.9796 71.64C55.1396 70.24 54.7196 68.49 54.7196 66.39V32.23H60.1096V66.25C60.1096 69.7033 61.7196 71.43 64.9396 71.43C65.8963 71.43 66.8179 71.325 67.7046 71.115C68.6146 70.905 69.6296 70.59 70.7496 70.17L71.5196 74.09C70.3296 74.6033 69.1396 75.0233 67.9496 75.35C66.7829 75.6767 65.5696 75.84 64.3096 75.84ZM49.3296 45.32V41.54H70.6796V45.32H49.3296ZM77.258 80.04L94.828 23.83H100.428L82.718 80.04H77.258Z" fill="white" fill-opacity="0.8"/>
</svg>
