<svg width="693" height="1050" viewBox="0 0 693 1050" fill="none" xmlns="http://www.w3.org/2000/svg">
<path opacity="0.8" d="M394.6 300.362C386.1 295.462 380 295.362 376.3 299.962C372.5 304.562 370.7 312.362 370.7 323.262V382.262C370.7 393.462 369.7 402.762 367.6 410.162C365.5 417.862 362 423.262 357.2 426.462C352.5 429.762 346.1 430.562 338 429.062C330.1 427.662 320.2 423.462 308.4 416.662L302.8 413.362V366.862L309.9 370.962C318.4 375.862 324 376.462 326.8 372.962C329.8 369.462 331.3 362.262 331.3 351.362V299.362C331.3 285.762 332.6 275.062 335.3 267.262C337.9 259.362 343.2 254.362 351.1 252.162C343.2 240.862 337.9 229.662 335.3 218.762C332.7 207.862 331.4 195.662 331.4 182.062V130.062C331.4 119.162 329.9 110.162 326.9 103.262C324.1 96.462 318.4 90.562 310 85.662L302.9 81.562V35.062L308.5 38.362C320.3 45.162 330.2 52.462 338.1 60.162C346.2 67.962 352.6 76.162 357.3 84.962C362.2 93.762 365.7 103.162 367.7 113.262C369.8 123.062 370.8 133.562 370.8 144.762V203.762C370.8 214.662 372.7 224.662 376.4 233.562C380.2 242.462 386.3 249.462 394.7 254.262L394.6 300.362Z" fill="url(#paint0_linear_133_225)"/>
<path opacity="0.8" d="M180.399 129.462C188.899 134.362 194.999 134.462 198.699 129.862C202.499 125.262 204.299 117.462 204.299 106.562V47.5619C204.299 36.3619 205.299 27.0619 207.399 19.6619C209.499 11.9619 212.899 6.56188 217.599 3.26188C222.499 0.0618751 228.899 -0.738125 236.799 0.661875C244.899 2.16188 254.899 6.36188 266.699 13.2619L272.299 16.5619V63.0619L265.199 58.9619C256.699 54.0619 250.999 53.3619 247.999 56.8619C245.199 60.4619 243.799 67.6619 243.799 78.6619V130.662C243.799 144.162 242.499 154.962 239.799 162.762C237.199 170.662 231.899 175.662 223.999 177.862C231.899 189.162 237.199 200.362 239.799 211.262C242.399 222.162 243.699 234.362 243.699 247.962V299.962C243.699 310.862 245.099 319.762 247.899 326.662C250.899 333.562 256.599 339.562 265.099 344.362L272.199 348.462V394.962L266.599 391.662C254.799 384.862 244.799 377.462 236.699 369.762C228.799 362.062 222.399 353.862 217.499 344.962C212.799 336.262 209.399 326.862 207.399 316.862C205.299 307.062 204.299 296.562 204.299 285.362V226.362C204.299 215.462 202.399 205.462 198.699 196.562C194.899 187.662 188.799 180.662 180.399 175.862V129.462Z" fill="url(#paint1_linear_133_225)"/>
<path opacity="0.5" d="M423.499 12.8621L634.599 134.762L634.499 640.862L423.399 519.062L423.499 12.8621Z" fill="url(#paint2_linear_133_225)"/>
<path d="M383.8 79.1619L551.8 176.062V222.562L383.8 125.662V79.1619Z" fill="#B8546E"/>
<path opacity="0.6" d="M451 294.462L610.2 386.362V527.062L451 435.162V294.462Z" fill="url(#paint3_linear_133_225)"/>
<path opacity="0.4" d="M449.399 186.562L610.999 279.862V295.762L449.399 202.462V186.562Z" fill="white"/>
<path opacity="0.4" d="M449.399 218.562L589.099 299.162V315.062L449.399 234.462V218.562Z" fill="white"/>
<path opacity="0.4" d="M449.399 250.162L567.999 318.562V334.462L449.399 266.062V250.162Z" fill="white"/>
<path opacity="0.7" d="M423.499 12.8621L634.599 134.762V202.562L423.399 80.7621L423.499 12.8621Z" fill="url(#paint4_linear_133_225)"/>
<path opacity="0.2" d="M476.199 77.6619C476.199 87.9619 470.199 92.7619 462.799 88.4619C455.399 84.1619 449.399 72.4619 449.399 62.1619C449.399 51.8619 455.399 47.0619 462.799 51.3619C470.199 55.6619 476.199 67.4619 476.199 77.6619Z" fill="white"/>
<path opacity="0.5" d="M43.1 167.862L692.9 542.862L692.8 1049.26L43 674.262L43.1 167.862Z" fill="url(#paint5_linear_133_225)"/>
<path d="M0 292.662L167.9 389.562V436.062L0 339.262V292.662Z" fill="#CB97AC"/>
<path opacity="0.5" d="M86.8994 420.462L459.699 635.662V651.562L86.8994 436.362V420.462Z" fill="white"/>
<path opacity="0.5" d="M86.8994 452.462L408.499 638.062V653.962L86.8994 468.362V452.462Z" fill="white"/>
<path opacity="0.5" d="M86.8994 484.162L360.599 642.162V658.062L86.8994 500.062V484.162Z" fill="white"/>
<path opacity="0.7" d="M338.5 685.762L666.3 874.962V1015.66L338.5 826.462V685.762Z" fill="url(#paint6_linear_133_225)"/>
<path opacity="0.3" d="M363.2 727.862L412.6 756.362V802.862L363.2 774.362V727.862Z" fill="white"/>
<path opacity="0.3" d="M423.7 765.062L473.1 793.562V840.062L423.7 811.562V765.062Z" fill="white"/>
<path opacity="0.3" d="M484.5 799.562L533.9 828.062V874.562L484.5 846.062V799.562Z" fill="white"/>
<path opacity="0.3" d="M545.3 836.262L594.7 864.762V911.262L545.3 882.762V836.262Z" fill="white"/>
<path opacity="0.7" d="M25.8994 499.962L298.799 657.462V798.162L25.8994 640.562V499.962Z" fill="url(#paint7_linear_133_225)"/>
<path opacity="0.5" d="M53.3994 551.862L270.199 676.962V692.862L53.3994 567.762V551.862Z" fill="white"/>
<path opacity="0.5" d="M53.3994 583.862L226.999 684.062V699.962L53.3994 599.662V583.862Z" fill="white"/>
<path opacity="0.7" d="M43.0996 167.862L692 542.462V611.062L43.0996 236.562V167.862Z" fill="url(#paint8_linear_133_225)"/>
<path opacity="0.2" d="M113.8 242.962C113.8 253.262 107.8 258.062 100.4 253.762C93 249.462 87 237.762 87 227.462C87 217.162 93 212.362 100.4 216.662C107.8 220.962 113.8 232.762 113.8 242.962Z" fill="white"/>
<defs>
<linearGradient id="paint0_linear_133_225" x1="452.162" y1="21.0276" x2="288.379" y2="304.955" gradientUnits="userSpaceOnUse">
<stop stop-color="white"/>
<stop offset="0.903" stop-color="white" stop-opacity="0"/>
</linearGradient>
<linearGradient id="paint1_linear_133_225" x1="357.606" y1="1.77897" x2="193.805" y2="285.671" gradientUnits="userSpaceOnUse">
<stop stop-color="white"/>
<stop offset="0.903" stop-color="white" stop-opacity="0"/>
</linearGradient>
<linearGradient id="paint2_linear_133_225" x1="638.569" y1="137.061" x2="436.714" y2="486.777" gradientUnits="userSpaceOnUse">
<stop stop-color="white"/>
<stop offset="1" stop-color="white" stop-opacity="0"/>
</linearGradient>
<linearGradient id="paint3_linear_133_225" x1="561.084" y1="357.931" x2="504.982" y2="455.126" gradientUnits="userSpaceOnUse">
<stop stop-color="white"/>
<stop offset="1" stop-color="white" stop-opacity="0"/>
</linearGradient>
<linearGradient id="paint4_linear_133_225" x1="495.878" y1="13.9136" x2="560.243" y2="196.139" gradientUnits="userSpaceOnUse">
<stop stop-color="white"/>
<stop offset="1" stop-color="white" stop-opacity="0"/>
</linearGradient>
<linearGradient id="paint5_linear_133_225" x1="477.583" y1="418.595" x2="370.664" y2="603.877" gradientUnits="userSpaceOnUse">
<stop stop-color="white"/>
<stop offset="1" stop-color="white" stop-opacity="0"/>
</linearGradient>
<linearGradient id="paint6_linear_133_225" x1="532.894" y1="797.942" x2="476.792" y2="895.138" gradientUnits="userSpaceOnUse">
<stop stop-color="white"/>
<stop offset="1" stop-color="white" stop-opacity="0"/>
</linearGradient>
<linearGradient id="paint7_linear_133_225" x1="192.797" y1="596.247" x2="136.695" y2="693.443" gradientUnits="userSpaceOnUse">
<stop stop-color="white"/>
<stop offset="1" stop-color="white" stop-opacity="0"/>
</linearGradient>
<linearGradient id="paint8_linear_133_225" x1="204.106" y1="112.588" x2="450.499" y2="529.965" gradientUnits="userSpaceOnUse">
<stop stop-color="white"/>
<stop offset="1" stop-color="white" stop-opacity="0"/>
</linearGradient>
</defs>
</svg>
