<svg width="90" height="110" viewBox="0 0 90 110" fill="none" xmlns="http://www.w3.org/2000/svg">
<path d="M23.48 82V80.32C26.36 80.32 28.04 79.7867 28.52 78.72V51.68C25.2133 51.4133 23.5333 51.28 23.48 51.28V49.44C24.4933 49.44 26.4667 48.88 29.4 47.76C32.3867 46.5867 34.4933 46 35.72 46V78.72C36.2 79.7867 37.88 80.32 40.76 80.32V82H23.48ZM31.88 40.88C30.7067 40.88 29.6667 40.4533 28.76 39.6C27.9067 38.6933 27.48 37.5467 27.48 36.16C27.48 34.9333 27.8533 33.8667 28.6 32.96C29.4 32.0533 30.4133 31.6 31.64 31.6C32.8133 31.6 33.8533 32.0533 34.76 32.96C35.6667 33.8667 36.12 35.0133 36.12 36.4C36.12 37.6267 35.72 38.6933 34.92 39.6C34.12 40.4533 33.1067 40.88 31.88 40.88ZM56.8063 35.2V46.8H63.6863V49.2H56.8063V74.64C56.8063 76.2933 57.0996 77.5733 57.6863 78.48C58.2729 79.3333 59.3663 79.76 60.9663 79.76C61.9263 79.76 62.8863 79.3067 63.8463 78.4C64.8596 77.44 65.5529 76.1333 65.9262 74.48L67.8463 75.44C66.7263 80.3467 63.5263 82.8 58.2463 82.8C52.1663 82.8 49.1263 79.8667 49.1263 74V49.2H43.5263V46.8C46.0329 46.8 48.2996 45.76 50.3263 43.68C52.3529 41.6 53.3663 38.7733 53.3663 35.2H56.8063Z" fill="white" fill-opacity="0.7"/>
<path d="M10 110H0L0 -1.19209e-06H10L10 110Z" fill="white" fill-opacity="0.7"/>
<rect x="20" y="105.769" width="4.23077" height="15" transform="rotate(90 20 105.769)" fill="white" fill-opacity="0.7"/>
<rect x="20" width="4.23077" height="15" transform="rotate(90 20 0)" fill="white" fill-opacity="0.7"/>
<path d="M80 0L90 0L90 110H80L80 0Z" fill="white" fill-opacity="0.7"/>
<rect x="70" y="4.23077" width="4.23077" height="15" transform="rotate(-90 70 4.23077)" fill="white" fill-opacity="0.7"/>
<rect x="70" y="110" width="4.23077" height="15" transform="rotate(-90 70 110)" fill="white" fill-opacity="0.7"/>
</svg>
